<?xml version="1.0" encoding="UTF-8"?>
<svg width="1791px" height="265px" viewBox="0 0 1791 265" version="1.1" xmlns="http://www.w3.org/2000/svg" xmlns:xlink="http://www.w3.org/1999/xlink">
    <!-- Generator: Sketch 51.2 (57519) - http://www.bohemiancoding.com/sketch -->
    <title>xm logo</title>
    <desc>Created with Sketch.</desc>
    <defs>
        <polygon id="path-1" points="0 0.982 184.018 0.982 184.018 184.9998 0 184.9998"></polygon>
        <polygon id="path-3" points="0 185.018 1634.764 185.018 1634.764 1 0 1"></polygon>
    </defs>
    <g id="xm-logo-w" stroke="none" stroke-width="1" fill="none" fill-rule="evenodd">
        <g id="Group-27" transform="translate(78.000000, 40.000000)">
            <path d="M367.3282,139.4509 C368.5212,143.8299 367.1232,147.0079 363.1532,148.9929 C358.7742,148.9929 355.9972,147.2039 354.8042,143.6249 C346.0542,117.3849 336.9132,94.3309 327.3702,74.4459 C324.9852,70.0749 325.5822,66.8979 329.1602,64.9039 C333.5302,63.3199 336.9132,64.7079 339.2982,69.0779 C349.2322,90.5479 358.5782,114.0119 367.3282,139.4509 M304.7082,35.0849 L304.7082,140.0469 C304.2882,163.0719 293.1722,167.6769 261.7692,158.5349 C257.3892,156.9409 255.8052,154.1559 256.9982,150.1859 C258.5822,147.0079 261.5642,145.8149 265.9442,146.6069 C285.4192,152.5709 290.5412,150.4369 291.5882,139.4509 L291.5882,35.6809 C291.5882,31.7119 293.5732,29.5219 297.5522,29.1209 C301.9222,29.5219 304.3072,31.5059 304.7082,35.0849 M265.3472,75.0419 C256.9982,104.4699 248.2482,126.3309 239.1072,140.6439 C235.9202,145.0239 232.1462,146.2159 227.7752,144.2219 C224.1972,141.8369 223.7972,138.2579 226.5832,133.4869 C236.9172,117.9809 245.6672,97.1079 252.8232,70.8679 C254.0162,66.8979 256.5972,65.4999 260.5762,66.6929 C264.5462,68.2859 266.1392,71.0729 265.3472,75.0419" id="Fill-1" fill="#FFFFFF"></path>
            <path d="M466.2554,119.1741 L466.2554,150.7821 L489.5144,150.7821 L489.5144,123.3491 C489.5144,120.5721 487.5194,119.1741 483.5504,119.1741 L466.2554,119.1741 Z M453.1354,67.8861 L497.8634,67.8861 L497.8634,58.3441 L453.1354,58.3441 L453.1354,67.8861 Z M493.0924,38.0661 L457.3094,38.0661 C454.1224,38.4671 452.7344,39.8561 453.1354,42.2411 L453.1354,47.6081 L497.8634,47.6081 L497.8634,41.6451 C497.8634,39.2591 496.2694,38.0661 493.0924,38.0661 Z M431.6654,150.7821 L454.9244,150.7821 L454.9244,119.1741 L431.6654,119.1741 L431.6654,150.7821 Z M454.3274,27.3321 L498.4594,27.3321 C506.0074,26.9401 509.5854,30.7141 509.1944,38.6631 L509.1944,85.1801 C508.9054,104.1331 500.8454,107.6471 472.2194,101.2821 C468.6414,100.8911 466.8514,98.8971 466.8514,95.3191 C467.6434,91.7401 469.8334,89.9521 473.4114,89.9521 C492.0954,93.1381 497.7744,92.4351 497.8634,87.5661 L497.8634,78.6201 L451.9424,78.6201 C449.5564,88.9631 446.3704,96.5121 442.4004,101.2821 C439.6144,104.4691 436.6324,105.2611 433.4544,103.6681 C430.6684,101.6831 430.2674,98.8971 432.2614,95.3191 C438.6164,86.5781 441.8034,75.2471 441.8034,61.3251 L441.8034,37.4701 C441.0024,30.7141 445.1774,27.3321 454.3274,27.3321 Z M420.3344,119.1741 L403.6354,119.1741 C399.2554,119.1741 397.2704,120.9631 397.6714,124.5411 L397.6714,150.7821 L420.3344,150.7821 L420.3344,119.1741 Z M412.5814,35.6811 L394.0934,35.6811 C390.1144,35.6811 388.1294,37.6751 388.1294,41.6451 L388.1294,55.3621 L417.3524,55.3621 L417.3524,40.4521 C417.7434,36.8741 416.1594,35.2901 412.5814,35.6811 Z M417.3524,79.8131 L417.3524,66.0961 L388.1294,66.0961 L388.1294,79.8131 C387.7284,84.1931 389.3224,86.1771 392.9004,85.7771 L412.5814,85.7771 C415.7584,86.1771 417.3524,84.1931 417.3524,79.8131 Z M428.6834,36.8741 L428.6834,83.9881 C428.6834,92.7381 424.5084,96.9121 416.1594,96.5121 L389.9184,96.5121 C380.3764,97.3131 375.9974,92.9331 376.7984,83.3911 L376.7984,36.8741 C376.3974,28.9251 380.3764,24.9461 388.7264,24.9461 L414.3704,24.9461 C424.7044,24.1541 429.4754,28.1331 428.6834,36.8741 Z M398.8644,107.8431 L487.1284,107.8431 C496.6704,107.4511 501.2364,111.4211 500.8454,119.7701 L500.8454,150.7821 L509.7904,150.7821 C513.7604,150.7821 515.9504,152.5711 516.3504,156.1491 C516.3504,159.3271 514.3574,161.1161 510.3874,161.5171 L377.3944,161.5171 C373.4154,161.1161 371.2264,159.1311 370.8344,155.5531 C371.2264,152.3661 373.4154,150.7821 377.3944,150.7821 L386.3404,150.7821 L386.3404,119.1741 C385.9394,111.6261 390.1144,107.8431 398.8644,107.8431 Z" id="Fill-3" fill="#FFFFFF"></path>
            <path d="M611.7004,41.0484 L660.0074,41.0484 C663.5854,41.4494 665.5694,43.4344 665.9704,47.0124 C665.5694,50.9914 663.5854,52.9764 660.0074,52.9764 L559.2184,52.9764 C553.2454,53.3164 552.1584,54.8684 552.0624,60.7294 L552.0624,89.3554 C551.6614,124.7464 545.8934,149.1884 534.7674,162.7094 C531.1894,165.8874 527.8064,166.4834 524.6284,164.4984 C522.2434,161.7124 522.4394,158.3304 525.2254,154.3604 C535.5594,142.4324 540.3304,121.3634 539.5384,91.1444 L539.5384,54.1684 C538.7374,45.0274 543.3124,40.6574 553.2554,41.0484 L597.9834,41.0484 C596.3904,37.8704 594.7964,34.6934 593.2124,31.5064 C591.6194,28.3284 592.6164,25.7474 596.1944,23.7534 C599.7724,22.5604 602.5494,23.3624 604.5434,26.1394 C607.7214,32.1034 610.1064,37.0784 611.7004,41.0484" id="Fill-5" fill="#FFFFFF"></path>
            <path d="M779.2106,116.7885 L706.4526,116.7885 C701.6816,116.7885 699.4916,118.9785 699.8926,123.3485 L699.8926,144.2225 C699.8926,148.6015 702.2776,150.9775 707.0496,151.3785 L778.6146,151.3785 C782.9846,150.9775 785.3706,149.1885 785.7706,146.0105 L785.7706,123.3485 C785.3706,119.3795 783.1806,117.1895 779.2106,116.7885 M700.4886,104.8605 L787.5596,104.8605 C793.5236,105.2615 796.8976,108.4395 797.6986,114.4025 L797.6986,152.5715 C797.2976,158.9265 793.7196,162.3085 786.9636,162.7095 L701.0856,162.7095 C692.7356,162.3085 688.5616,158.7305 688.5616,151.9745 L688.5616,113.8065 C688.9526,108.6445 692.9316,105.6625 700.4886,104.8605 M749.3916,28.5245 L749.3916,46.4155 L799.4876,46.4155 C802.6646,46.8165 804.4546,48.8015 804.8546,52.3795 C805.2466,56.3585 803.8576,58.3435 800.6806,58.3435 L749.3916,58.3435 L749.3916,81.0055 L806.0476,81.0055 C810.0176,81.4065 812.2066,83.3915 812.6076,86.9695 C812.2066,90.9485 810.2226,92.9335 806.6446,92.9335 L680.8086,92.9335 C676.4286,92.9335 674.0426,90.9485 673.6516,86.9695 C674.0426,83.3915 676.4286,81.4065 680.8086,81.0055 L737.4646,81.0055 L737.4646,58.3435 L702.2776,58.3435 C700.6846,60.3375 699.0906,62.1265 697.5066,63.7105 C693.1276,69.2835 689.7536,72.6565 687.3686,73.8495 C683.7896,75.8435 680.8086,75.6385 678.4226,73.2525 C676.4286,70.4765 677.0246,67.4945 680.2116,64.3075 C689.7536,54.7655 696.3136,44.6275 699.8926,33.8915 C701.0856,30.3135 703.6666,28.9255 707.6456,29.7175 C711.2236,31.3105 712.6116,33.8915 711.8196,37.4705 C709.8256,41.8505 708.6326,44.8315 708.2416,46.4155 L737.4646,46.4155 L737.4646,27.9285 C737.4646,25.1515 739.4496,23.5575 743.4276,23.1575 C747.0066,23.5575 748.9916,25.3475 749.3916,28.5245" id="Fill-7" fill="#FFFFFF"></path>
            <path d="M106.3405,100.417 C106.1635,100.586 105.9915,100.762 105.8175,100.936 C106.0005,100.772 106.1745,100.599 106.3405,100.417" id="Fill-9" fill="#FFFFFF"></path>
            <path d="M95.1107,90.4744 C95.3267,90.2514 95.5417,90.0274 95.7627,89.8084 C95.5327,90.0174 95.3137,90.2384 95.1107,90.4744" id="Fill-11" fill="#FFFFFF"></path>
            <path d="M93.4846,94.8489 C93.4846,94.3769 93.5076,93.9099 93.5476,93.4479 C93.3866,94.0609 93.2916,94.7009 93.2916,95.3649 C93.2916,96.3419 93.4846,97.2719 93.8236,98.1279 C93.6046,97.0669 93.4846,95.9719 93.4846,94.8489 Z" id="Fill-13" fill="#FFFFFF"></path>
            <path d="M47.758,143.7756 C48.146,143.4426 48.526,143.0966 48.901,142.7406 C48.485,143.0466 48.103,143.3926 47.758,143.7756" id="Fill-15" fill="#FFFFFF"></path>
            <path d="M59.6685,152.9916 C58.6895,153.9176 57.6805,154.7996 56.6395,155.6276 C58.3525,154.1926 55.3985,156.7856 59.6685,152.9916" id="Fill-17" fill="#FFFFFF"></path>
            <g id="Group-21" transform="translate(0.000000, 0.018000)">
                <mask id="mask-2" fill="white">
                    <use xlink:href="#path-1"></use>
                </mask>
                <g id="Clip-20"></g>
                <path d="M161.925,87.7068 C159.828,100.7268 152.571,110.0198 140.251,114.0318 C127.497,118.1848 115.211,116.2058 105.658,105.7948 C94.728,93.8828 84.151,81.6468 73.423,69.5498 C66.032,61.2138 56.049,58.7178 46.707,62.8768 C38.376,66.5858 32.816,76.4728 34.124,85.2538 C35.641,95.4468 42.788,102.8748 52.542,104.3958 C54.248,104.6618 55.915,104.7418 57.534,104.6508 C62.234,104.3858 66.51,102.6348 70.074,99.5778 C70.366,99.3278 70.652,99.0668 70.933,98.7998 C71.875,98.1068 73.033,97.6928 74.292,97.6928 C77.428,97.6928 79.971,100.2358 79.971,103.3728 C79.971,104.5308 79.623,105.6068 79.028,106.5048 C78.292,107.2018 77.533,107.8638 76.75,108.4868 C73.017,111.0768 69.929,112.9818 66.134,114.2388 C59.177,116.5428 51.564,116.5758 44.411,114.0428 C32.089,109.6798 23.342,97.4638 22.777,83.8298 C22.214,70.2678 30.114,57.9568 43.073,52.1998 C54.7,47.0358 69.923,49.6338 78.94,59.2738 C90.502,71.6338 101.428,84.5868 112.725,97.1968 C120.614,106.0028 133.325,107.1908 142.582,100.1738 C151.528,93.3928 153.745,80.6398 147.653,71.0028 C143.375,64.2348 136.098,60.9198 128.872,61.0378 C123.506,61.1248 118.172,63.1108 114.111,66.9848 C113.978,67.1118 113.848,67.2448 113.718,67.3758 C112.718,68.2768 111.398,68.8308 109.945,68.8308 C107.563,68.8308 105.53,67.3518 104.702,65.2648 C104.537,64.4668 104.447,63.6438 104.447,62.7998 C104.447,62.4448 104.464,62.0938 104.495,61.7468 C104.716,60.9098 105.121,60.1488 105.669,59.5108 C105.832,59.3438 105.993,59.1748 106.16,59.0108 C109.985,55.2418 114.907,52.5248 120.199,51.0298 C127.601,48.9388 135.718,49.2318 142.543,52.3838 C156.663,58.9038 164.312,72.8848 161.925,87.7068 M125.251,134.4138 C125.026,135.8448 124.257,137.1018 123.086,137.9548 C116.461,142.7788 109.071,145.9788 101.716,147.2098 C98.765,147.7038 95.755,147.9548 92.768,147.9548 C81.638,147.9548 70.79,144.5388 61.396,138.0768 C60.202,137.2548 59.4,136.0178 59.137,134.5938 C58.873,133.1688 59.181,131.7278 60.002,130.5348 C60.822,129.3418 62.059,128.5388 63.484,128.2748 C64.908,128.0148 66.35,128.3188 67.543,129.1398 C77.191,135.7778 88.689,138.3938 99.925,136.5118 C105.63,135.5568 111.431,133.0238 116.702,129.1858 C117.872,128.3348 119.306,127.9868 120.737,128.2128 C122.168,128.4388 123.425,129.2068 124.278,130.3788 C125.131,131.5488 125.477,132.9818 125.251,134.4138 M166.111,0.9818 L17.907,0.9818 C8.058,0.9818 0,9.0398 0,18.8888 L0,167.0928 C0,176.9418 8.058,184.9998 17.907,184.9998 L166.111,184.9998 C175.96,184.9998 184.018,176.9418 184.018,167.0928 L184.018,18.8888 C184.018,9.0398 175.96,0.9818 166.111,0.9818" id="Fill-19" fill="#FFFFFF" mask="url(#mask-2)"></path>
            </g>
            <g id="Group-25" transform="translate(853.000000, 31.018000)">
                <path d="M0.4792,0.6636 L0.4792,124.8066" id="Fill-22" fill="#FFFFFF"></path>
                <path d="M0.4792,0.6636 L0.4792,124.8066" id="Stroke-24" stroke="#FFFFFF"></path>
            </g>
            <mask id="mask-4" fill="white">
                <use xlink:href="#path-3"></use>
            </mask>
            <g id="Clip-26"></g>
            <text id="全网小程序社交广告平台" mask="url(#mask-4)" font-family="PingFangSC-Light, PingFang SC" font-size="58" font-weight="300" letter-spacing="0.14" fill="#FFFFFF">
                <tspan x="907.4443" y="118.3422354">全网小程序社交广告平台</tspan>
            </text>
        </g>
    </g>
</svg>
